<?xml version="1.0" standalone="no"?>
<!DOCTYPE svg PUBLIC "-//W3C//DTD SVG 20010904//EN"
 "http://www.w3.org/TR/2001/REC-SVG-20010904/DTD/svg10.dtd">
<svg version="1.0" xmlns="http://www.w3.org/2000/svg"
 width="1600.000000pt" height="900.000000pt" viewBox="0 0 1600.000000 900.000000"
 preserveAspectRatio="xMidYMid meet">

<g transform="translate(0.000000,900.000000) scale(0.100000,-0.100000)"
fill="#000000" stroke="none">
<path d="M13505 8959 c-98 -101 -212 -160 -570 -294 -201 -75 -286 -111 -380
-161 -313 -165 -455 -379 -455 -683 0 -158 53 -277 193 -433 29 -33 33 -34 40
-8 7 26 53 28 62 1 8 -25 -4 -51 -22 -51 -24 0 -2 -22 90 -91 67 -51 82 -58
89 -45 21 37 74 7 63 -36 -5 -21 4 -29 102 -85 249 -142 677 -331 1118 -493
28 -10 86 -33 130 -50 44 -17 103 -39 130 -49 507 -184 908 -388 1030 -523 58
-65 75 -96 82 -157 10 -86 -31 -167 -136 -268 -119 -115 -260 -198 -771 -454
-420 -210 -553 -284 -713 -397 -302 -211 -441 -434 -454 -723 -8 -179 26 -320
112 -463 19 -32 35 -60 35 -62 0 -2 -26 -4 -57 -4 -81 0 -142 -19 -261 -78
-167 -85 -391 -226 -462 -293 l-35 -33 50 -14 c79 -21 260 -80 301 -97 25 -10
34 -20 31 -30 -4 -8 -2 -17 3 -20 5 -3 -5 -29 -21 -58 -23 -37 -28 -56 -21
-67 6 -11 2 -26 -15 -53 l-24 -38 61 -66 c49 -52 59 -68 49 -79 -6 -8 -8 -15
-3 -15 5 -1 15 -2 23 -3 11 -1 90 -132 104 -171 2 -6 21 -5 51 3 33 9 52 9 61
2 8 -7 30 -7 69 1 32 6 64 8 71 5 27 -10 50 -226 26 -240 -5 -4 -67 29 -137
71 -97 60 -128 74 -132 63 -12 -36 -161 -169 -247 -220 -49 -29 -94 -53 -100
-54 -6 -1 -26 -11 -45 -22 -19 -12 -48 -28 -65 -36 -92 -46 -141 -72 -145 -77
-6 -7 -285 -146 -435 -217 -345 -162 -323 -152 -407 -185 -31 -12 -60 -29 -63
-38 -6 -16 -28 -153 -65 -401 -66 -442 -122 -672 -197 -799 -35 -61 -99 -129
-142 -151 -36 -19 -31 -19 489 -20 l525 0 10 23 c6 12 17 22 25 22 8 0 16 -10
18 -22 l3 -23 609 0 c587 0 608 1 603 19 -4 17 20 51 37 51 16 0 40 -31 40
-51 0 -19 22 -19 1270 -19 l1270 0 0 324 c0 315 -1 324 -20 329 -13 3 -20 14
-20 31 0 15 8 31 20 38 20 13 20 24 20 4145 l0 4133 -1228 0 -1228 0 -39 -41z
m915 7 c0 -2 3 -11 6 -19 9 -23 -24 -49 -47 -37 -19 10 -26 40 -12 53 7 8 53
10 53 3z m-566 -48 c8 -14 7 -21 -6 -34 -30 -30 -75 9 -48 42 16 18 39 15 54
-8z m1571 -66 c0 -18 -20 -15 -23 4 -3 10 1 15 10 12 7 -3 13 -10 13 -16z
m-986 -141 c15 -27 -9 -56 -37 -47 -21 7 -31 44 -15 59 13 13 42 7 52 -12z
m1191 -126 c0 -8 -7 -15 -15 -15 -8 0 -15 7 -15 15 0 8 7 15 15 15 8 0 15 -7
15 -15z m-2980 -210 c10 -12 10 -18 0 -30 -17 -20 -56 -19 -64 1 -14 36 39 59
64 29z m2875 -30 c0 -21 -5 -31 -19 -33 -26 -5 -40 12 -32 43 5 20 12 26 29
23 17 -2 22 -10 22 -33z m458 -125 c6 -22 -18 -53 -36 -47 -18 6 -31 33 -24
51 9 23 53 21 60 -4z m-3135 -34 c5 -24 -10 -38 -31 -30 -17 6 -23 35 -10 48
12 12 38 1 41 -18z m357 -36 c0 -20 -6 -26 -27 -28 -24 -3 -28 0 -28 21 0 30
9 39 35 35 14 -2 20 -10 20 -28z m1483 -206 c4 -29 -23 -51 -43 -34 -16 13
-20 42 -8 54 14 14 48 1 51 -20z m-1783 -124 c11 -17 -5 -32 -21 -19 -8 6 -14
15 -14 20 0 12 27 11 35 -1z m1173 -19 c8 -4 12 -19 10 -32 -2 -18 -9 -24 -28
-24 -19 0 -26 6 -28 24 -3 20 11 41 28 41 3 0 11 -4 18 -9z m-1639 -30 c13
-24 -8 -55 -34 -50 -28 6 -42 34 -26 53 18 22 48 20 60 -3z m1319 -133 c3 -24
0 -28 -23 -28 -27 0 -41 20 -31 46 10 27 51 13 54 -18z m-1111 -12 c-9 -23
-37 -20 -37 3 0 21 20 33 34 20 5 -4 6 -15 3 -23z m1208 -126 c0 -18 -6 -26
-23 -28 -24 -4 -38 18 -28 44 3 9 15 14 28 12 17 -2 23 -10 23 -28z m735 5
c26 -31 -18 -71 -47 -42 -19 19 -8 57 16 57 10 0 24 -7 31 -15z m574 -647 c8
-14 7 -21 -6 -34 -30 -30 -75 9 -48 42 16 18 39 15 54 -8z m360 -60 c8 -14 7
-21 -6 -34 -30 -30 -75 9 -48 42 16 18 39 15 54 -8z m-234 -439 c14 -26 -4
-51 -34 -47 -24 4 -33 33 -16 53 17 21 37 19 50 -6z m388 -260 c3 -28 -16 -43
-43 -33 -15 6 -21 45 -8 58 16 16 48 1 51 -25z m-45 -811 c15 -23 1 -48 -28
-48 -14 0 -25 2 -25 4 0 2 -3 11 -6 19 -6 16 23 50 39 44 6 -2 15 -10 20 -19z
m2 -278 c0 -19 -6 -26 -24 -28 -27 -4 -41 12 -33 40 3 14 12 18 31 16 20 -2
26 -8 26 -28z m-1650 -855 c0 -25 -4 -30 -25 -30 -16 0 -26 6 -28 18 -6 30 6
49 30 45 18 -2 23 -9 23 -33z m-327 -36 c3 -28 -16 -43 -43 -33 -15 6 -21 45
-8 58 16 16 48 1 51 -25z m257 -289 c7 -23 -10 -50 -30 -50 -20 0 -37 27 -30
50 4 13 15 20 30 20 15 0 26 -7 30 -20z m608 -27 c-13 -2 -33 -2 -45 0 -13 2
-3 4 22 4 25 0 35 -2 23 -4z m135 -175 c0 -94 -88 -331 -168 -447 -9 -14 -39
-59 -66 -100 -46 -69 -75 -105 -179 -218 -22 -24 -73 -69 -112 -101 -40 -31
-73 -61 -73 -67 0 -5 18 -22 39 -38 65 -45 348 -273 423 -340 98 -87 210 -223
249 -303 31 -63 34 -77 34 -159 0 -73 -4 -99 -23 -136 -74 -151 -238 -227
-430 -200 -42 6 -86 13 -97 16 -14 4 -23 0 -30 -17 -21 -47 -80 -28 -73 24 3
15 0 28 -5 28 -5 0 -64 26 -132 59 -130 62 -293 156 -465 269 l-105 69 -45
-25 c-25 -13 -54 -31 -65 -38 -28 -20 -35 -17 -35 14 0 21 9 32 38 49 152 87
435 334 514 449 37 54 70 150 69 200 -2 39 1 43 69 98 38 31 78 65 88 74 9 10
46 42 82 72 120 99 222 220 314 373 84 140 154 312 163 404 7 79 20 73 21 -9z
m-573 -109 c89 -45 139 -129 139 -234 0 -155 -109 -264 -265 -265 -147 0 -269
120 -269 266 0 107 85 221 188 255 48 15 155 4 207 -22z m-668 -198 c131 -92
253 -230 343 -387 46 -81 120 -255 120 -282 0 -14 -80 -76 -136 -105 -7 -4
-24 28 -44 81 -18 48 -57 130 -86 183 -30 54 -54 101 -54 107 0 5 11 17 25 26
13 9 31 29 40 45 28 55 -21 63 -103 17 -22 -12 -27 -9 -75 42 -57 60 -147 127
-217 162 -25 12 -47 24 -49 26 -8 8 134 133 150 134 9 0 47 -22 86 -49z m-286
-223 c54 -39 209 -190 209 -204 0 -5 -32 -33 -71 -62 l-70 -53 -52 53 c-29 30
-85 77 -125 105 l-73 51 61 71 c34 39 65 71 69 71 4 0 28 -14 52 -32z m2144
-287 c0 -34 -32 -52 -50 -27 -19 25 -2 58 28 54 16 -2 22 -10 22 -27z m-1743
-236 c37 -85 45 -112 35 -121 -13 -12 -148 -67 -152 -62 -1 2 -24 50 -52 108
-27 58 -64 127 -81 155 l-31 49 77 52 77 52 40 -62 c21 -33 61 -110 87 -171z
m1796 -72 c4 -30 -31 -49 -52 -27 -18 18 -18 17 -10 39 10 25 58 16 62 -12z
m241 -17 c9 -11 10 -20 1 -36 -13 -24 -38 -23 -53 1 -23 37 25 68 52 35z
m-2009 -971 c14 -17 5 -51 -16 -59 -20 -8 -54 11 -54 29 0 43 43 62 70 30z
m1826 -76 c10 -17 -13 -36 -27 -22 -12 12 -4 33 11 33 5 0 12 -5 16 -11z
m-1146 -164 c26 -32 -13 -81 -47 -59 -35 22 -23 74 17 74 10 0 23 -7 30 -15z
m1388 -152 c5 -17 -26 -29 -40 -15 -6 6 -7 15 -3 22 9 14 37 9 43 -7z m-3470
-242 c22 -14 10 -46 -19 -49 -34 -4 -57 22 -39 43 14 17 38 19 58 6z m3350
-33 c5 -39 -33 -58 -60 -30 -17 16 -18 23 -8 41 17 33 64 25 68 -11z m-3108
-192 c0 -30 -13 -40 -40 -31 -13 4 -20 15 -20 31 0 20 5 24 30 24 25 0 30 -4
30 -24z m404 -9 c26 -19 18 -61 -12 -65 -44 -7 -67 32 -36 62 19 19 25 20 48
3z m1726 -257 c22 -40 -26 -80 -58 -48 -25 25 -6 68 30 68 9 0 22 -9 28 -20z
m-2062 -164 c3 -13 -1 -17 -14 -14 -11 2 -20 11 -22 22 -3 13 1 17 14 14 11
-2 20 -11 22 -22z m1362 -20 c6 -8 10 -25 8 -38 -4 -30 -46 -38 -65 -12 -17
23 -16 29 3 48 19 20 38 20 54 2z m-1910 -21 c15 -18 10 -45 -12 -59 -35 -22
-74 27 -48 59 16 19 44 19 60 0z"/>
<path d="M13881 3418 c-76 -52 -100 -131 -62 -205 61 -120 239 -113 286 11 40
105 -23 204 -137 214 -44 3 -59 0 -87 -20z m139 -13 c66 -34 92 -104 65 -173
-21 -52 -67 -82 -124 -82 -87 0 -148 64 -138 146 5 47 41 97 82 114 32 14 84
11 115 -5z"/>
<path d="M12195 2459 c-127 -29 -256 -100 -336 -186 -127 -136 -229 -351 -299
-630 -25 -102 -25 -101 7 -61 215 263 512 572 749 781 57 50 104 94 104 99 0
11 -174 8 -225 -3z"/>
</g>
</svg>
