<?xml version="1.0" encoding="utf-8"?>
<!-- Generator: Adobe Illustrator 22.0.1, SVG Export Plug-In . SVG Version: 6.00 Build 0)  -->
<svg version="1.1" id="Layer_1" xmlns="http://www.w3.org/2000/svg" xmlns:xlink="http://www.w3.org/1999/xlink" x="0px" y="0px"
	 viewBox="0 0 1920 1080" style="enable-background:new 0 0 1920 1080;" xml:space="preserve">
<style type="text/css">
	.st0{fill:#C63D2E;}
	.st1{opacity:0.4;}
	.st2{fill:#BA1200;}
	.st3{opacity:0.1;}
	.st4{opacity:0.1;enable-background:new    ;}
	.st5{fill:#F4C18A;}
	.st6{fill:#EFB576;}
	.st7{fill:#E8B276;}
	.st8{fill:#FEE3C5;}
	.st9{fill:#FEC689;}
	.st10{fill:#C18448;}
	.st11{fill:#46BBEB;}
	.st12{fill:#4FFFA8;}
	.st13{fill:#FFE9B7;}
	.st14{fill:#FFB246;}
	.st15{fill:#EEA735;}
	.st16{fill:#F0C778;}
	.st17{fill:#DA6132;}
	.st18{opacity:0.1;fill:#524B3B;enable-background:new    ;}
</style>
<g id="Mars">
	<g id="Mars_1_">
		<path class="st0" d="M2041.1,373.8c-10.2,39.4-50.4,63-89.8,52.8s-63-50.4-52.8-89.8s50.4-63,89.8-52.8
			C2027.7,294.3,2051.3,334.5,2041.1,373.8z"/>
		<g class="st1">
			<path class="st2" d="M1897.6,369.9c20.9,0.7,77.8-1.3,142.6-36.4c-2.5-8.1-6.4-15.7-11.5-22.5c-21,14.5-69.2,41.3-132.2,37.6
				C1895.8,355.9,1896.2,363,1897.6,369.9z"/>
			<path class="st2" d="M2041.1,373.8c2-7.5,2.7-15.1,2.3-22.5c-16.6,12.5-67.6,45.5-136.7,41.8c3.2,5.4,7.1,10.3,11.6,14.7
				c21.8,0.1,67.8-3.2,121.1-28.2C2040,377.8,2040.6,375.8,2041.1,373.8z"/>
			<path class="st2" d="M1964.6,428.8c17.4,1.2,34.4-3.8,48-13.6C1998.9,420.9,1982.7,425.9,1964.6,428.8z"/>
			<path class="st2" d="M2015.1,297.3c-7.7-6-16.7-10.6-26.8-13.2c-35.4-9.2-71.5,9-85.8,41.4C1926.6,324.6,1968,319.4,2015.1,297.3
				z"/>
		</g>
		<path class="st2" d="M2014.4,335.2c-1.9,7.5-9.6,12-17,10c-7.5-1.9-12-9.6-10-17c1.9-7.5,9.6-12,17-10
			C2011.9,320.1,2016.4,327.8,2014.4,335.2z"/>
		<g class="st3">
			<path d="M2006.9,322.6c3,0.8,5.5,2.4,7.3,4.7c-1.5-4.3-5-7.8-9.7-9c-7.5-1.9-15.1,2.5-17,10c-1.2,4.5,0,9.1,2.7,12.4
				c-0.9-2.5-1-5.3-0.3-8C1991.8,325.1,1999.4,320.6,2006.9,322.6z"/>
		</g>
		<path class="st2" d="M1968.4,366.6c-1.3,5.1-6.5,8.2-11.6,6.8c-5.1-1.3-8.2-6.5-6.8-11.6c1.3-5.1,6.5-8.2,11.6-6.8
			C1966.7,356.3,1969.7,361.5,1968.4,366.6z"/>
		<g class="st3">
			<path d="M1963.3,357.9c2,0.5,3.7,1.7,5,3.2c-1-2.9-3.4-5.3-6.6-6.2c-5.1-1.3-10.3,1.7-11.6,6.8c-0.8,3.1,0,6.2,1.9,8.4
				c-0.6-1.7-0.7-3.6-0.2-5.5C1953,359.7,1958.2,356.6,1963.3,357.9z"/>
		</g>
		<path class="st2" d="M2001.2,301.8c-0.9,3.3-4.2,5.3-7.6,4.4c-3.3-0.9-5.3-4.2-4.4-7.6c0.9-3.3,4.2-5.3,7.6-4.4
			C2000,295.1,2002,298.5,2001.2,301.8z"/>
		<g class="st3">
			<path d="M1997.8,296.2c1.3,0.3,2.4,1.1,3.2,2.1c-0.7-1.9-2.2-3.5-4.3-4c-3.3-0.9-6.7,1.1-7.6,4.4c-0.5,2,0,4,1.2,5.5
				c-0.4-1.1-0.4-2.3-0.1-3.6C1991.1,297.3,1994.5,295.3,1997.8,296.2z"/>
		</g>
		<path class="st2" d="M1933.4,357.5c-1.3,5.1-6.5,8.2-11.6,6.8c-5.1-1.3-8.2-6.5-6.8-11.6c1.3-5.1,6.5-8.2,11.6-6.8
			C1931.6,347.2,1934.7,352.4,1933.4,357.5z"/>
		<g class="st3">
			<path d="M1928.2,348.8c2,0.5,3.7,1.7,5,3.2c-1-2.9-3.4-5.3-6.6-6.2c-5.1-1.3-10.3,1.7-11.6,6.8c-0.8,3.1,0,6.2,1.9,8.4
				c-0.6-1.7-0.7-3.6-0.2-5.5C1917.9,350.6,1923.1,347.5,1928.2,348.8z"/>
		</g>
		<path class="st2" d="M1966.5,411.9c-1.3,5.1-6.5,8.2-11.6,6.8c-5.1-1.3-8.2-6.5-6.8-11.6c1.3-5.1,6.5-8.2,11.6-6.8
			C1964.8,401.6,1967.8,406.8,1966.5,411.9z"/>
		<g class="st3">
			<path d="M1961.3,403.2c2,0.5,3.7,1.7,5,3.2c-1-2.9-3.4-5.3-6.6-6.2c-5.1-1.3-10.3,1.7-11.6,6.8c-0.8,3.1,0,6.2,1.9,8.5
				c-0.6-1.7-0.7-3.6-0.2-5.5C1951,405,1956.2,401.9,1961.3,403.2z"/>
		</g>
		<path class="st2" d="M2001.8,405.9c-1.3,5.1-6.5,8.2-11.6,6.8c-5.1-1.3-8.2-6.5-6.8-11.6c1.3-5.1,6.5-8.2,11.6-6.8
			C2000.1,395.6,2003.1,400.8,2001.8,405.9z"/>
		<g class="st3">
			<path d="M1996.6,397.2c2,0.5,3.7,1.7,5,3.2c-1-2.9-3.4-5.3-6.6-6.2c-5.1-1.3-10.3,1.7-11.6,6.8c-0.8,3.1,0,6.2,1.9,8.4
				c-0.6-1.7-0.7-3.6-0.2-5.5C1986.3,399,1991.5,395.9,1996.6,397.2z"/>
		</g>
		<path class="st2" d="M2025.7,370.9c-0.8,2.9-3.7,4.7-6.7,3.9c-2.9-0.8-4.7-3.7-3.9-6.7c0.8-2.9,3.7-4.7,6.7-3.9
			C2024.7,365,2026.5,368,2025.7,370.9z"/>
		<g class="st3">
			<path d="M2022.8,366c1.2,0.3,2.1,1,2.8,1.8c-0.6-1.7-1.9-3-3.8-3.5c-2.9-0.8-5.9,1-6.7,3.9c-0.5,1.8,0,3.5,1.1,4.8
				c-0.3-1-0.4-2.1-0.1-3.1C2016.9,367,2019.8,365.2,2022.8,366z"/>
		</g>
		<path class="st2" d="M1957.6,307.7c-0.8,2.9-3.7,4.7-6.7,3.9c-2.9-0.8-4.7-3.7-3.9-6.7c0.8-2.9,3.7-4.7,6.7-3.9
			C1956.6,301.8,1958.3,304.7,1957.6,307.7z"/>
		<g class="st3">
			<path d="M1954.6,302.7c1.2,0.3,2.1,1,2.8,1.8c-0.6-1.7-1.9-3-3.8-3.5c-2.9-0.8-5.9,1-6.7,3.9c-0.5,1.8,0,3.5,1.1,4.8
				c-0.3-1-0.4-2.1-0.1-3.1C1948.7,303.7,1951.7,301.9,1954.6,302.7z"/>
		</g>
		<path class="st2" d="M1922.4,314.5c-0.4,1.5-2,2.5-3.5,2.1s-2.5-2-2.1-3.5s2-2.5,3.5-2.1C1921.8,311.5,1922.7,313,1922.4,314.5z"
			/>
		<g class="st3">
			<path d="M1920.8,312c0.6,0.2,1.1,0.5,1.5,1c-0.3-0.9-1-1.6-2-1.9c-1.5-0.4-3.1,0.5-3.5,2.1c-0.2,0.9,0,1.9,0.6,2.5
				c-0.2-0.5-0.2-1.1-0.1-1.6C1917.7,312.5,1919.3,311.6,1920.8,312z"/>
		</g>
		<path class="st2" d="M2039.3,353.7c-0.4,1.5-2,2.5-3.5,2.1s-2.5-2-2.1-3.5s2-2.5,3.5-2.1C2038.7,350.6,2039.7,352.2,2039.3,353.7z
			"/>
		<g class="st3">
			<path d="M2037.7,351.1c0.6,0.2,1.1,0.5,1.5,1c-0.3-0.9-1-1.6-2-1.9c-1.5-0.4-3.1,0.5-3.5,2.1c-0.2,0.9,0,1.9,0.6,2.5
				c-0.2-0.5-0.2-1.1-0.1-1.6C2034.6,351.7,2036.2,350.7,2037.7,351.1z"/>
		</g>
		<path class="st2" d="M1917.9,378.9c-0.4,1.5-2,2.5-3.5,2.1s-2.5-2-2.1-3.5s2-2.5,3.5-2.1C1917.4,375.8,1918.3,377.4,1917.9,378.9z
			"/>
		<g class="st3">
			<path d="M1916.4,376.3c0.6,0.2,1.1,0.5,1.5,1c-0.3-0.9-1-1.6-2-1.9c-1.5-0.4-3.1,0.5-3.5,2.1c-0.2,0.9,0,1.9,0.6,2.5
				c-0.2-0.5-0.2-1.1-0.1-1.6C1913.3,376.9,1914.9,375.9,1916.4,376.3z"/>
		</g>
		<path class="st2" d="M1938.8,404.9c-0.4,1.5-2,2.5-3.5,2.1s-2.5-2-2.1-3.5s2-2.5,3.5-2.1C1938.2,401.8,1939.2,403.4,1938.8,404.9z
			"/>
		<g class="st3">
			<path d="M1937.2,402.3c0.6,0.2,1.1,0.5,1.5,1c-0.3-0.9-1-1.6-2-1.9c-1.5-0.4-3.1,0.5-3.5,2.1c-0.2,0.9,0,1.9,0.6,2.5
				c-0.2-0.5-0.2-1.1-0.1-1.6C1934.1,402.9,1935.7,401.9,1937.2,402.3z"/>
		</g>
		<path class="st4" d="M2016.8,298.6c5,13.6,6.1,28.9,2.2,44c-10.2,39.4-50.4,63-89.8,52.8c-10.8-2.8-20.4-7.9-28.5-14.5
			c8.1,21.8,26.3,39.5,50.6,45.8c39.4,10.2,79.6-13.4,89.8-52.8C2048.5,345.3,2038.1,316.3,2016.8,298.6z"/>
	</g>
</g>
<g id="Saturn">
	<g id="Saturn_2_">
		<g id="Saturn_1_">
			<path class="st5" d="M2023.6,946c4.6,46.1-29,87.3-75.2,91.9c-46.1,4.6-87.3-29-91.9-75.2c-4.6-46.1,29-87.3,75.2-91.9
				C1977.8,866.1,2018.9,899.8,2023.6,946z"/>
			<g>
				<path class="st6" d="M1908.2,949.8c0,0,48.8-3.1,94.1-51.8c-6.6-7.3-14.3-13.3-23-17.9C1969.8,899.8,1949.7,924.6,1908.2,949.8z
					"/>
				<path class="st7" d="M2023.4,964.3c-40.4,37.7-86.6,57.5-116.5,67.2c2.6,1.1,5.2,2.1,7.9,2.9c18.5-4.3,49.9-14.3,72.9-35.4
					c0,0-9.8,23.3-45.9,39.3c2.2,0,4.4-0.2,6.6-0.4c6.4-0.6,12.5-2,18.3-3.9c7.5-4.4,14.8-9.5,21.4-15.6c0,0-1.3,3.1-4.8,7.9
					C2005.2,1013.1,2020.3,990.3,2023.4,964.3z"/>
				<path class="st8" d="M1931.6,870.8c-36.6,3.7-65.3,30.3-73.4,64.2c28.9-15.6,67.5-38.4,97.6-63.1
					C1948.1,870.4,1939.9,869.9,1931.6,870.8z"/>
				<path class="st6" d="M1962.2,949.3c-20.6,20.5-63.1,37.5-94.4,47.9c1.8,3.1,3.9,6,6.1,8.8
					C1939.4,981.4,1962.2,949.3,1962.2,949.3z"/>
				<path class="st9" d="M2019,925.9c-23,26.5-71.5,73-137.6,88.6c4.9,4.8,10.4,8.9,16.3,12.4c2.9,1.7,6,3.2,9.1,4.6
					c29.9-9.7,76.1-29.4,116.5-67.2c0.4-3.1,0.6-6.3,0.6-9.5c0-2.9-0.1-5.9-0.4-8.9C2022.9,939,2021.3,932.3,2019,925.9z"/>
				<path class="st9" d="M1987.7,999c-23,21.1-54.5,31.1-72.9,35.4c8.6,2.7,17.7,4.1,27,3.8C1977.9,1022.3,1987.7,999,1987.7,999z"
					/>
				<path class="st5" d="M1966.7,1034c5.9-2,11.4-4.5,16.6-7.7c3.5-4.8,4.8-7.9,4.8-7.9C1981.5,1024.5,1974.2,1029.6,1966.7,1034z"
					/>
				<path class="st6" d="M1987.7,923.5c0,0,12.5-3.7,24.1-12.8c-1.3-2.1-2.7-4.2-4.2-6.2C2002,911,1995.2,917.9,1987.7,923.5z"/>
			</g>
			<g>
				<path class="st10" d="M2069.4,889.8c-4.1-8.3-30.3-4.3-66.9,8.6c2.1,2.3,4.1,4.8,5.9,7.4c15.9-4,26.5-4.3,28.7,0.2
					c2.2,4.4-4.4,12.8-17.1,23c-15.9,12.8-41.3,28.6-71.1,43.4c-29.8,14.9-57.7,25.7-77.4,30.7c-15.9,4-26.5,4.3-28.7-0.2
					c-2.2-4.4,4.4-12.8,17.1-23c-0.9-3-1.7-6-2.3-9.1c-32.2,21.4-51.2,40-47.1,48.2c4.1,8.3,30.3,4.3,66.9-8.6
					c22-7.7,47.7-18.7,74.5-32.1c26.9-13.4,51-27.4,70.4-40.3C2054.6,916.6,2073.6,898,2069.4,889.8z"/>
			</g>
		</g>
	</g>
</g>
<g id="Earth">
	<g id="Earth_2_">
		<g id="Earth_1_">
			<circle class="st11" cx="2048.3" cy="121.3" r="86.7"/>
			<g>
				<path class="st12" d="M2132.6,101.1l-1.4-0.5h-6.8l-5-4.1l-10.5,7.8l-8.8-7.8l-14.9,2.8l-9.6,1.1l-1.6,18l3.9,17.2h15.9l8.8-1.3
					l3.8,7l4.1,8.1l-7.1,6l6,13.6l-1,5.3l5.3,3.9c13.3-15.2,21.3-35.2,21.3-57C2134.9,114.3,2134.1,107.6,2132.6,101.1z"/>
				<path class="st12" d="M1973.1,113.2l5.6,1.3l5.6,3.7l7.6,2.4l3.9,1l3.7,1.6l-1.9,3.9l-6.1,9.7l6.7,8l9.5,6.1v5.4l6.3,9.5
					c0,0-0.6,6.1,0,8s4.3,12.1,4.3,12.1l3.7,4.8l8.9,1.1l-5.6-9.1c0,0,8.2-12.5,8.9-13c0.6-0.4-2.6-5.4-1.9-6.1
					c0.6-0.6,5.8-6.3,5.8-6.3l5.6-7.1l2.4-9.3l-7.1-11.2c0,0-8-5.6-8-6.3c0-0.6-5.2-6.3-5.2-6.3l-14.5-0.4l-8.2-2.6l-3,5.4l-6.9-3.5
					l0.2-5.7h-4.8h-0.6l-3-4.7l4.5-3.5l9.3,4.8l5.8-3.7l6.3-14.7l5.6-7.1h10.2l1.5-3.5l6.7-3.2l2.8,1.9l3-4.5l-5.8-8.2l-4.5-1.5
					l-1.7,1.6l-5.5,5.1l-12.8-3l-1.7,6.1l-5.6-7.1l7.3-2.6l8.2,2.2l3.2-3.2l10.4-1.5l-8.4-8.9h-9.7l-3.9,6.3l-3.9-5l-9.4-0.6
					c-18.2,13.5-30.9,34-34.3,57.5l6.9,1.2L1973.1,113.2z"/>
				<path class="st12" d="M2100.5,67.6v3.9l-11.5,3.2l1.1,8.2l-6.5-4l-6.3,5.1l4.1,6.1l6.3,0.9l10.6-8.4l3,3.9c0,0-1.9,4.5,0,6.1
					c1.9,1.5,10.1,3.9,10.1,3.9v-7.3l-5.6-5l3.7-3l6.7,5.6l-2.2,3.9l12.5,5.8c0,0,1.4-1.6,3.4-3.9c-6.3-17.8-18.2-32.9-33.7-43.2
					l-3.6,13.7L2100.5,67.6z"/>
			</g>
			<path class="st4" d="M2091,45.8c11.6,14.7,18.6,33.4,18.6,53.6c0,47.9-38.8,86.7-86.7,86.7c-15.5,0-30.1-4.1-42.7-11.2
				c15.9,20.1,40.5,33.1,68.1,33.1c47.9,0,86.7-38.8,86.7-86.7C2134.9,88.9,2117.2,60.7,2091,45.8z"/>
			<path class="st12" d="M1981.5,158.6l-1.3-1.3l-3.6,0.7v3.6l-3.8,2.2c1.7,3,3.6,6,5.7,8.8l2.8-0.5l5.4-3.9l0.3-3.5l-5.4-2.6
				L1981.5,158.6L1981.5,158.6z"/>
		</g>
	</g>
</g>
<g>
	<circle class="st13" cx="1995.6" cy="644.9" r="120"/>
	<path class="st14" d="M2113.5,666.9c-30.5,0-63.3,2.7-93.5-0.9c-14.5-1.7-31.2-6.7-45.3-11.2c-20-6.3-37.7-7.9-58.2-7.9
		c-4.9,0-24.2,0.9-40.5,2.1c-0.1,0.9-0.1,1.9-0.2,2.8c0.4,6.5,1.3,12.8,2.6,19c32.6,6.3,64.6,18.9,96.7,26.6
		c14,3.4,28.4,2.8,43.3,2.8c18.9,0,39.9,2.7,58.1-2.3c10.6-2.9,21.3-6.6,31.6-11.3C2110.4,680.3,2112.3,673.7,2113.5,666.9z"/>
	<path class="st15" d="M2090.9,572c-5.8-7.5-12.4-14.3-19.7-20.3c-9.5,3.3-20.8,10-28.7,12.5c-13.8,4.3-30.1,6.7-44.4,7.1
		c-31.6,0.8-65,1-95.1-2.7c-6.9,8.4-12.7,17.8-17.2,27.8c31.6,2.2,66.1,0.8,93.5-3.8c26.3-4.4,53.7-7.2,79.9-12.3
		C2071.1,577.9,2080.1,573.7,2090.9,572z"/>
	<path class="st16" d="M2115.2,653.6c-0.2,0-0.5,0-0.7,0c-30.7-0.1-64,2.8-94.5-0.9c-14.5-1.7-31.2-6.7-45.3-11.2
		c-20-6.3-37.7-7.9-58.2-7.9c-4.9,0-24.2,0.9-40.5,2.1c-0.2,3-0.4,6.1-0.4,9.2c0,4.1,0.2,8.2,0.6,12.2c33.3,6.2,66.1,19.1,98.9,27
		c14,3.4,28.4,2.8,43.3,2.8c18.9,0,39.9,2.7,58.1-2.3c12.2-3.4,24.5-7.7,36.1-13.4C2113.9,665.5,2114.8,659.6,2115.2,653.6z"/>
	<path class="st17" d="M1995.6,764.9c18.2,0,35.5-4.1,50.9-11.3c-0.6-0.1-1.1-0.2-1.7-0.3c-18.8-3.9-37.1-11.1-55.7-16
		c-11.1-2.9-22.8-7-34.4-7c-5.5,0-11,0-16.5,0c-6,0.1-11.3,0.8-17.1,2.3c-1.5,0.4-4.1,0.5-6.8,0.6
		C1935.7,752.8,1964.2,764.9,1995.6,764.9z"/>
	<path class="st18" d="M1926.5,674c0-66.3,53.7-120,120-120c11.2,0,22,1.6,32.2,4.4c-21.6-20.7-50.9-33.5-83.1-33.5
		c-66.3,0-120,53.7-120,120c0,55.1,37.2,101.5,87.8,115.6C1940.7,738.6,1926.5,707.9,1926.5,674z"/>
</g>
</svg>
